<svg width="18" height="18" viewBox="0 0 18 18" fill="none" xmlns="http://www.w3.org/2000/svg">
<path fill-rule="evenodd" clip-rule="evenodd" d="M9.71005 0.289169C11.6991 0.48808 13.5545 1.38167 14.9501 2.81292C16.4704 4.35742 17.3693 6.40737 17.4754 8.57204C17.5814 10.7367 16.8872 12.8647 15.5251 14.5504C14.2722 16.1077 12.5141 17.1776 10.5554 17.5748C8.59658 17.9721 6.56055 17.6716 4.80005 16.7254C3.03577 15.7588 1.65846 14.2137 0.90005 12.3504C0.138246 10.4775 0.0368481 8.4011 0.61255 6.46292C1.18702 4.53228 2.40999 2.85897 4.07505 1.72542C5.72611 0.599058 7.72128 0.0905291 9.71005 0.289169ZM10.3 16.3504C11.9786 16.01 13.4859 15.095 14.5625 13.7629C15.7283 12.3141 16.3214 10.4876 16.2292 8.6303C16.1371 6.77299 15.366 5.0142 14.0625 3.68792C12.8686 2.46918 11.2844 1.70882 9.58669 1.53974C7.889 1.37065 6.18589 1.80361 4.77505 2.76292C3.71309 3.49466 2.85555 4.48542 2.28364 5.64133C1.71174 6.79724 1.44442 8.08002 1.50701 9.36815C1.5696 10.6563 1.96003 11.9071 2.64131 13.0021C3.32259 14.0971 4.27215 15.0001 5.40005 15.6254C6.89796 16.4338 8.63222 16.6904 10.3 16.3504ZM8.2188 6.50042H9.7813V5.25042H8.2188V6.50042ZM9.7813 7.75042V12.7504H8.2188V7.75042H9.7813Z" fill="white"/>
</svg>
