<svg width="20" height="20" viewBox="0 0 20 20" fill="none" xmlns="http://www.w3.org/2000/svg">
<path d="M9.37994 19.7956C9.57515 19.9905 9.89136 19.9905 10.0866 19.7956L19.1923 10.7022C19.3879 10.5069 19.3879 10.19 19.1923 9.99464L18.1826 8.98627C17.9874 8.79133 17.6712 8.79133 17.4759 8.98627L11.8132 14.6413C11.4982 14.9559 10.9599 14.7328 10.9599 14.2875L10.9599 1.04844C10.9599 0.772295 10.7361 0.548437 10.4599 0.548437H9.00659C8.73045 0.548437 8.50659 0.772295 8.50659 1.04844L8.50659 14.2875C8.50659 14.7328 7.96836 14.9559 7.65328 14.6413L1.99057 8.98627C1.79536 8.79133 1.47915 8.79133 1.28394 8.98627L0.274197 9.99464C0.0786145 10.19 0.0786142 10.5069 0.274197 10.7022L9.37994 19.7956Z" fill="white"/>
</svg>
